HIERARCHY
ROOT Hips
{
	OFFSET 0.000000 0.000000 0.000000
	CHANNELS 6 Xposition Yposition Zposition Yrotation Xrotation Zrotation
	JOINT Chest
	{
		OFFSET 0.000000 -0.009282 11.569106
		CHANNELS 6 Xposition Yposition Zposition Yrotation Xrotation Zrotation
		JOINT Chest2
		{
			OFFSET -0.000000 0.016863 9.269641
			CHANNELS 6 Xposition Yposition Zposition Yrotation Xrotation Zrotation
			JOINT Chest3
			{
				OFFSET -0.000000 0.000000 8.374491
				CHANNELS 6 Xposition Yposition Zposition Yrotation Xrotation Zrotation
				JOINT Chest4
				{
					OFFSET -0.000000 0.000000 8.374493
					CHANNELS 6 Xposition Yposition Zposition Yrotation Xrotation Zrotation
					JOINT Neck
					{
						OFFSET -0.000000 0.000001 12.152554
						CHANNELS 6 Xposition Yposition Zposition Yrotation Xrotation Zrotation
						JOINT Head
						{
							OFFSET -0.000000 0.040100 7.802319
							CHANNELS 6 Xposition Yposition Zposition Yrotation Xrotation Zrotation
							End Site
							{
								OFFSET -0.000000 0.020946 14.853096
							}
						}
					}
					JOINT RightCollar
					{
						OFFSET 2.894404 0.000001 6.791374
						CHANNELS 6 Xposition Yposition Zposition Yrotation Xrotation Zrotation
						JOINT RightShoulder
						{
							OFFSET 13.574684 0.000001 0.000000
							CHANNELS 6 Xposition Yposition Zposition Yrotation Xrotation Zrotation
							JOINT RightElbow
							{
								OFFSET 23.923903 0.000002 0.000000
								CHANNELS 6 Xposition Yposition Zposition Yrotation Xrotation Zrotation
								JOINT RightWrist
								{
									OFFSET 19.846718 0.012767 0.000000
									CHANNELS 6 Xposition Yposition Zposition Yrotation Xrotation Zrotation
									End Site
									{
										OFFSET 14.973145 0.000001 0.000000
									}
								}
							}
						}
					}
					JOINT LeftCollar
					{
						OFFSET -2.894404 0.000000 6.791374
						CHANNELS 6 Xposition Yposition Zposition Yrotation Xrotation Zrotation
						JOINT LeftShoulder
						{
							OFFSET -13.574684 -0.000001 0.000000
							CHANNELS 6 Xposition Yposition Zposition Yrotation Xrotation Zrotation
							JOINT LeftElbow
							{
								OFFSET -23.923903 -0.000002 0.000000
								CHANNELS 6 Xposition Yposition Zposition Yrotation Xrotation Zrotation
								JOINT LeftWrist
								{
									OFFSET -19.846718 0.012763 0.000000
									CHANNELS 6 Xposition Yposition Zposition Yrotation Xrotation Zrotation
									End Site
									{
										OFFSET -14.973145 -0.000001 0.000000
									}
								}
							}
						}
					}
				}
			}
		}
	}
	JOINT RightHip
	{
		OFFSET 9.469263 0.004643 0.045487
		CHANNELS 6 Xposition Yposition Zposition Yrotation Xrotation Zrotation
		JOINT RightKnee
		{
			OFFSET 0.000000 0.002666 -40.478676
			CHANNELS 6 Xposition Yposition Zposition Yrotation Xrotation Zrotation
			JOINT RightAnkle
			{
				OFFSET 0.000000 0.049110 -35.224068
				CHANNELS 6 Xposition Yposition Zposition Yrotation Xrotation Zrotation
				JOINT RightToe
				{
					OFFSET -0.000001 12.539530 -6.151390
					CHANNELS 6 Xposition Yposition Zposition Yrotation Xrotation Zrotation
					End Site
					{
						OFFSET -0.000001 5.044996 -1.291870
					}
				}
			}
		}
	}
	JOINT LeftHip
	{
		OFFSET -9.469263 0.004641 0.045487
		CHANNELS 6 Xposition Yposition Zposition Yrotation Xrotation Zrotation
		JOINT LeftKnee
		{
			OFFSET 0.000000 0.002666 -40.478676
			CHANNELS 6 Xposition Yposition Zposition Yrotation Xrotation Zrotation
			JOINT LeftAnkle
			{
				OFFSET 0.000000 0.049110 -35.224068
				CHANNELS 6 Xposition Yposition Zposition Yrotation Xrotation Zrotation
				JOINT LeftToe
				{
					OFFSET -0.000001 12.539530 -6.151390
					CHANNELS 6 Xposition Yposition Zposition Yrotation Xrotation Zrotation
					End Site
					{
						OFFSET -0.000001 5.044996 -1.291870
					}
				}
			}
		}
	}
}
MOTION
Frames: 4
Frame Time: 0.016667
6.500192 3.850968 83.061401 -11.037991 -2.783832 -101.881383 -0.000000 -0.009281 11.569098 -0.272397 -2.836498 1.509930 0.000001 0.016863 9.269632 -0.117417 -1.259662 0.644078 0.000001 0.000000 8.374488 -0.117417 -1.259661 0.644076 0.000001 0.000000 8.374505 -0.086732 -0.944870 0.482795 -0.000000 0.000002 12.152549 4.689103 -17.739039 -10.772405 0.000000 0.040105 7.802299 5.022866 3.199060 -18.269802 2.894404 0.000000 6.791376 3.997384 0.438198 -12.579711 13.574684 0.000002 0.000005 50.770975 8.952875 30.039677 23.923891 -0.000000 -0.000000 60.964793 -49.136261 45.657632 19.846714 0.012776 0.000007 -12.274093 5.005801 -31.107291 -2.894405 0.000000 6.791376 -6.298393 0.392864 -7.965052 -13.574684 -0.000001 0.000010 -52.750326 -4.049853 -46.488405 -23.923903 -0.000011 0.000014 -27.202229 -7.848062 -52.401235 -19.846722 0.012753 0.000004 7.718657 21.269308 -15.656704 9.469262 0.004644 0.045480 1.334487 -14.848700 -12.384922 0.000096 0.002663 -40.478573 -3.055146 1.665507 -2.158252 0.000059 0.049103 -35.223942 4.190168 2.517815 -1.109213 0.000001 12.539527 -6.151397 0.002849 -0.029780 0.000767 -9.469262 0.004643 0.045483 0.891933 -14.836460 -23.306076 -0.000890 0.002506 -40.478504 -1.437287 4.290757 19.362422 -0.000936 0.048939 -35.224022 0.987636 1.136768 20.551500 -0.000003 12.539533 -6.151395 -0.007203 0.006263 0.016664 
6.508698 3.843252 83.061050 -11.011382 -2.786241 -101.969827 0.000001 -0.009280 11.569108 -0.244924 -2.794441 1.428261 -0.000000 0.016862 9.269639 -0.105497 -1.242268 0.610810 -0.000000 0.000000 8.374491 -0.105497 -1.242267 0.610813 -0.000000 0.000000 8.374496 -0.077878 -0.931807 0.457876 0.000000 0.000001 12.152575 4.618924 -17.788452 -10.708539 -0.000000 0.040104 7.802300 4.920448 3.103607 -18.174078 2.894404 -0.000000 6.791378 3.941105 0.492789 -12.541467 13.574681 0.000000 -0.000004 50.478223 9.914727 30.403583 23.923899 0.000009 0.000001 63.578447 -49.826735 45.885542 19.846722 0.012778 0.000001 -7.760113 4.213449 -37.435451 -2.894405 -0.000001 6.791385 -6.246767 0.373661 -7.917034 -13.574681 -0.000003 0.000000 -52.197071 -3.982910 -46.579797 -23.923906 -0.000018 0.000015 -25.422061 -8.172454 -50.984166 -19.846720 0.012756 0.000004 10.528296 18.479715 -14.353998 9.469263 0.004646 0.045496 1.331793 -14.823643 -12.349947 0.000095 0.002663 -40.478592 -3.072440 1.674000 -2.141419 0.000058 0.049105 -35.223949 4.198704 2.517333 -1.068719 0.000002 12.539524 -6.151390 0.001386 -0.030298 -0.002911 -9.469262 0.004645 0.045494 0.892813 -14.835427 -23.295783 -0.000890 0.002506 -40.478504 -1.441888 4.311475 19.388120 -0.000942 0.048938 -35.224007 0.987785 1.132172 20.671007 -0.000001 12.539533 -6.151391 -0.005419 0.011187 0.018196 
6.518143 3.832657 83.061592 -10.997320 -2.794909 -102.077881 0.000000 -0.009286 11.569101 -0.219003 -2.760778 1.350788 0.000000 0.016864 9.269642 -0.093974 -1.228164 0.580673 -0.000000 0.000001 8.374475 -0.093974 -1.228164 0.580673 -0.000001 0.000001 8.374489 -0.069311 -0.921214 0.435300 0.000000 0.000003 12.152559 4.546331 -17.833096 -10.638529 -0.000000 0.040099 7.802314 4.815078 3.017057 -18.068002 2.894404 0.000001 6.791383 3.895268 0.586301 -12.459190 13.574681 0.000002 0.000012 50.142990 10.768023 30.887997 23.923903 0.000004 0.000004 66.444777 -50.191727 46.175972 19.846716 0.012771 0.000003 -3.594425 3.997488 -42.650734 -2.894404 -0.000000 6.791372 -6.204458 0.359847 -7.852376 -13.574681 0.000000 0.000010 -51.640728 -3.926786 -46.562626 -23.923901 -0.000007 0.000017 -23.765626 -8.732481 -49.798786 -19.846718 0.012755 -0.000003 13.002725 15.902202 -12.673363 9.469262 0.004640 0.045491 1.330805 -14.815097 -12.320386 0.000093 0.002663 -40.478596 -3.091157 1.690896 -2.103510 0.000056 0.049104 -35.223957 4.208926 2.513078 -1.039266 -0.000001 12.539527 -6.151392 -0.001862 -0.031014 -0.005532 -9.469263 0.004641 0.045487 0.894267 -14.853047 -23.272910 -0.000893 0.002508 -40.478508 -1.444639 4.331329 19.419061 -0.000941 0.048939 -35.223995 0.983827 1.127990 20.670543 -0.000000 12.539535 -6.151384 -0.005469 0.018444 0.017596 
6.528583 3.815126 83.061607 -10.984175 -2.804724 -102.205933 0.000000 -0.009282 11.569101 -0.206050 -2.748538 1.305561 -0.000000 0.016864 9.269628 -0.088737 -1.222677 0.564735 0.000000 -0.000001 8.374487 -0.088737 -1.222677 0.564736 -0.000000 0.000000 8.374497 -0.065420 -0.917090 0.423358 -0.000000 0.000001 12.152551 4.496568 -17.851946 -10.582404 0.000001 0.040101 7.802326 4.744214 2.979906 -17.980738 2.894404 0.000001 6.791367 3.869003 0.641318 -12.389061 13.574684 0.000003 -0.000006 49.900085 11.374574 31.448172 23.923893 0.000019 -0.000003 68.928582 -50.217286 47.058952 19.846716 0.012773 -0.000002 0.587896 4.544859 -46.872675 -2.894404 -0.000000 6.791370 -6.172297 0.383813 -7.831580 -13.574686 -0.000002 -0.000013 -51.077900 -3.873718 -46.387513 -23.923910 -0.000009 -0.000001 -22.371523 -9.412882 -49.005156 -19.846714 0.012758 0.000008 14.651659 13.017635 -9.869057 9.469263 0.004643 0.045487 1.328602 -14.809915 -12.294072 0.000091 0.002663 -40.478592 -3.106460 1.712267 -2.049861 0.000054 0.049105 -35.223957 4.216367 2.510459 -0.992635 -0.000000 12.539528 -6.151408 -0.006866 -0.034296 -0.012143 -9.469263 0.004643 0.045482 0.890150 -14.869554 -23.256212 -0.000895 0.002507 -40.478512 -1.445953 4.347457 19.464979 -0.000945 0.048938 -35.224018 0.982617 1.127066 20.760111 -0.000001 12.539535 -6.151396 -0.006149 0.024420 0.021393 
